<?xml version="1.0" standalone="no"?>
<!DOCTYPE svg PUBLIC "-//W3C//DTD SVG 20010904//EN"
 "http://www.w3.org/TR/2001/REC-SVG-20010904/DTD/svg10.dtd">
<svg version="1.0" xmlns="http://www.w3.org/2000/svg"
 width="811.000000pt" height="811.000000pt" viewBox="0 0 811.000000 811.000000"
 preserveAspectRatio="xMidYMid meet">

<g transform="translate(0.000000,811.000000) scale(0.100000,-0.100000)"
fill="#000000" stroke="none">
<path d="M3655 8100 c-27 -4 -95 -13 -150 -19 -210 -26 -511 -96 -735 -171
-451 -153 -869 -381 -1238 -675 -134 -107 -298 -439 -348 -702 -23 -122 -15
-347 16 -453 81 -280 316 -457 694 -521 43 -7 127 -10 225 -6 170 5 271 26
427 86 152 59 404 214 620 383 l102 79 47 107 c241 543 397 730 517 623 30
-27 33 -34 33 -89 -1 -46 -8 -73 -33 -124 -63 -128 -200 -293 -398 -478 l-102
-94 -92 -223 c-51 -123 -91 -225 -89 -227 2 -3 56 52 119 121 186 202 435 424
605 538 163 109 280 156 406 163 118 6 176 -13 245 -82 144 -145 101 -364
-129 -655 -77 -96 -267 -291 -374 -383 -45 -39 -80 -75 -77 -79 3 -5 22 -9 42
-9 47 0 154 -38 211 -74 59 -38 137 -111 173 -164 66 -96 86 -239 52 -382 -32
-139 -147 -341 -293 -514 -92 -109 -95 -107 64 -45 174 67 268 119 287 159 10
19 47 97 83 173 126 270 265 466 368 519 78 39 166 22 221 -42 35 -42 36 -123
2 -195 -66 -144 -294 -351 -547 -501 -73 -43 -77 -48 -103 -112 -52 -126 -216
-556 -216 -565 0 -5 27 24 61 65 272 326 596 638 854 823 94 67 278 158 354
176 144 32 255 4 339 -85 107 -113 120 -263 37 -443 -68 -149 -299 -415 -517
-596 l-100 -82 58 -7 c176 -23 303 -108 377 -253 47 -94 60 -159 55 -275 -6
-115 -32 -209 -89 -323 -64 -126 -195 -302 -308 -412 -56 -54 -61 -65 -30 -65
12 0 200 -29 418 -65 218 -35 480 -76 583 -90 479 -64 819 -46 1034 56 36 17
98 110 195 294 85 159 164 330 210 455 53 145 120 356 139 435 6 28 15 66 20
85 5 19 11 49 14 65 3 17 14 73 25 125 55 267 80 636 62 938 -6 114 -18 254
-27 312 -8 58 -19 132 -23 165 -5 33 -12 74 -16 90 -18 84 -27 123 -35 155 -5
19 -17 67 -26 105 -18 80 -108 360 -134 420 -9 22 -39 92 -65 155 -294 698
-830 1335 -1485 1765 -235 155 -477 280 -730 380 -339 134 -674 217 -1048 260
-143 16 -740 20 -837 5z"/>
<path d="M1149 6883 c-371 -377 -672 -853 -869 -1373 -123 -325 -200 -656
-242 -1035 -17 -156 -17 -613 0 -775 40 -379 114 -695 247 -1050 260 -694 736
-1329 1335 -1779 536 -403 1123 -657 1770 -765 382 -64 939 -66 1285 -6 33 6
85 15 115 20 77 12 228 46 335 76 570 161 1077 427 1525 803 138 116 354 330
471 466 103 121 234 294 227 300 -3 3 -43 -4 -89 -15 -140 -33 -334 -45 -534
-32 -233 16 -412 40 -915 122 -234 38 -450 72 -481 76 l-55 6 -125 -94 c-272
-206 -545 -344 -779 -393 -96 -20 -241 -20 -307 0 -146 44 -222 180 -163 294
59 116 294 239 570 298 109 23 441 23 639 0 l135 -16 48 45 c338 316 494 651
418 896 -36 119 -130 221 -237 261 -63 24 -194 33 -262 18 -60 -13 -81 -4 -81
33 0 17 31 46 118 114 372 287 610 572 654 784 16 75 -1 151 -47 211 -104 136
-293 116 -560 -58 -267 -173 -697 -599 -1031 -1020 l-72 -90 -112 -315 c-282
-789 -420 -1120 -541 -1296 -62 -89 -109 -124 -169 -127 -37 -1 -46 3 -80 39
-45 49 -55 98 -41 200 39 273 344 831 763 1396 l109 146 83 229 c46 125 112
299 146 386 34 87 60 160 58 163 -3 2 -40 -12 -84 -32 -43 -20 -153 -60 -243
-90 -161 -54 -166 -56 -230 -116 -222 -208 -553 -428 -776 -517 -220 -88 -355
-76 -401 36 -35 82 -7 172 76 246 105 95 269 154 786 286 l349 89 79 83 c199
212 337 428 381 599 25 94 17 208 -18 277 -38 74 -125 156 -211 198 -87 43
-174 56 -268 43 -79 -12 -98 -7 -98 25 0 18 24 44 98 104 336 277 580 557 653
752 42 114 35 190 -24 258 -131 149 -393 70 -752 -228 -131 -109 -420 -399
-566 -569 l-117 -135 -122 -305 c-324 -807 -508 -1211 -654 -1435 -114 -175
-182 -235 -267 -235 -118 0 -153 115 -94 315 94 325 485 967 938 1542 l129
164 109 271 c60 149 108 272 106 274 -2 2 -43 -26 -93 -62 -49 -36 -139 -96
-201 -134 -312 -193 -525 -260 -824 -260 -270 0 -508 71 -685 204 -158 119
-246 265 -284 476 -17 92 -14 289 5 400 17 98 72 273 118 373 15 31 26 57 24
57 -1 0 -46 -44 -98 -97z"/>
<path d="M3719 6753 c-18 -15 -59 -67 -90 -116 -63 -95 -206 -374 -197 -383 8
-7 168 168 236 258 55 73 122 198 122 228 0 16 -18 40 -31 40 -4 0 -22 -12
-40 -27z"/>
<path d="M2758 4973 c-288 -390 -504 -731 -653 -1035 -138 -280 -186 -498
-111 -498 130 0 362 423 738 1344 129 316 129 316 124 316 -2 0 -46 -57 -98
-127z"/>
<path d="M4939 4786 c-47 -35 -103 -104 -162 -196 -46 -73 -180 -341 -173
-347 7 -8 179 115 269 191 184 158 274 323 202 370 -40 26 -87 20 -136 -18z"/>
<path d="M3458 3735 c-407 -105 -586 -173 -668 -255 -69 -69 -66 -154 7 -179
37 -13 49 -13 128 7 97 24 266 101 395 181 177 110 440 312 404 310 -10 0
-130 -29 -266 -64z"/>
<path d="M3972 2908 c-151 -205 -357 -541 -471 -767 -151 -300 -206 -501 -157
-580 14 -22 50 -10 87 29 102 107 250 438 477 1065 50 138 95 262 101 278 15
40 6 34 -37 -25z"/>
<path d="M4559 1959 c-305 -44 -599 -200 -599 -315 0 -31 8 -45 44 -79 57 -55
115 -70 245 -62 201 12 463 122 736 308 55 37 116 81 135 97 l35 29 -50 7
c-194 25 -435 32 -546 15z"/>
</g>
</svg>
